<?xml version="1.0" encoding="utf-8"?>
<!DOCTYPE svg PUBLIC "-//W3C//DTD SVG 1.1//EN" "http://www.w3.org/Graphics/SVG/1.1/DTD/svg11.dtd">
<svg version="1.1" id="logo-nazarmont" xmlns="http://www.w3.org/2000/svg" xmlns:xlink="http://www.w3.org/1999/xlink" x="0px"
	 y="0px" width="460px" height="65px" viewBox="0 0 460 65" enable-background="new 0 0 460 65" xml:space="preserve">
<path id="symbol" fill="#B59700" d="M30,0L0,16.25v32.85L30,65l30-15.89V16.42L30,0z M27.27,57.41L9.1,47.79l11.46-7.58
	c2.94-1.95-0.18-6.39-3.39-4.26L5.45,43.69v-21.4l21.82,11.82L27.27,57.41L27.27,57.41z M8.55,17.79L27.27,7.65v11.99
	c0,3.58,5.45,3.59,5.45,0V7.68L51.57,18L30.01,29.42C30.01,29.42,8.55,17.79,8.55,17.79z M32.73,34.12l21.82-11.56v21.12l-11.63-7.7
	c-3.22-2.13-6.34,2.32-3.4,4.26l11.38,7.53l-18.18,9.63V34.12z"/>
<path id="text" fill="#FFFFFF" d="M114.76,13.85v38.72h-7.36L88.1,29.06v23.51h-8.85V13.85h7.41l19.25,23.51V13.85H114.76z
	 M149.44,44.27h-17.98l-3.43,8.3h-9.18l17.26-38.72h8.85l17.31,38.72h-9.4L149.44,44.27z M146.62,37.46l-6.14-14.82l-6.14,14.82
	H146.62z M197.67,45.26v7.3h-33.85v-5.81l21.24-25.61h-20.8v-7.3h32.58v5.81l-21.19,25.61H197.67z M228.92,44.27h-17.98l-3.43,8.3
	h-9.18l17.26-38.72h8.85l17.31,38.72h-9.4L228.92,44.27z M226.1,37.46l-6.14-14.82l-6.14,14.82H226.1z M270.46,52.56l-7.47-10.79
	h-0.44h-7.8v10.79h-8.96V13.85h16.76c10.34,0,16.82,5.37,16.82,14.05c0,5.81-2.93,10.07-7.96,12.22l8.68,12.45H270.46z
	 M262.05,21.15h-7.3v13.5h7.3c5.48,0,8.24-2.54,8.24-6.75C270.29,23.64,267.52,21.15,262.05,21.15z M321.67,52.56l-0.05-23.23
	l-11.39,19.14h-4.04l-11.34-18.64v22.73h-8.41V13.85h7.41l14.49,24.06l14.27-24.06h7.36l0.11,38.72H321.67z M336.82,33.21
	c0-11.51,8.96-20.02,21.18-20.02c12.17,0,21.19,8.46,21.19,20.02s-9.02,20.02-21.19,20.02C345.78,53.23,336.82,44.71,336.82,33.21z
	 M370.12,33.21c0-7.36-5.2-12.39-12.11-12.39s-12.11,5.03-12.11,12.39s5.2,12.39,12.11,12.39S370.12,40.56,370.12,33.21z
	 M421.45,13.85v38.72h-7.36l-19.3-23.51v23.51h-8.85V13.85h7.41l19.25,23.51V13.85H421.45z M438.65,21.15h-12.39v-7.3H460v7.3
	h-12.39v31.42h-8.96V21.15z"/>
</svg>
