<?xml version="1.0" encoding="utf-8"?>
<!DOCTYPE svg PUBLIC "-//W3C//DTD SVG 1.1//EN" "http://www.w3.org/Graphics/SVG/1.1/DTD/svg11.dtd">
<svg version="1.1" id="symbol-nazarmont" xmlns="http://www.w3.org/2000/svg" xmlns:xlink="http://www.w3.org/1999/xlink" x="0px"
	 y="0px" width="300px" height="325px" viewBox="0 0 300 325" enable-background="new 0 0 300 325" xml:space="preserve">
<path id="symbol" fill="#B59700" d="M150,0L0,81.25V245.5L150,325l150-79.45V82.1L150,0z M136.35,287.05l-90.85-48.1l57.3-37.9
	c14.7-9.75-0.9-31.95-16.95-21.3l-58.6,38.7v-107l109.1,59.1V287.05L136.35,287.05z M42.75,88.95l93.6-50.7V98.2
	c0,17.9,27.25,17.95,27.25,0V38.4L257.85,90l-107.8,57.1L42.75,88.95z M163.65,170.6l109.1-57.8v105.6l-58.15-38.5
	c-16.1-10.65-31.7,11.6-17,21.3l56.9,37.65L163.6,287V170.6H163.65z"/>
</svg>
